<svg width="12" height="12" viewBox="0 0 12 12" fill="none" xmlns="http://www.w3.org/2000/svg">
<path fill-rule="evenodd" clip-rule="evenodd" d="M6 12C9.31371 12 12 9.31371 12 6C12 2.68629 9.31371 0 6 0C2.68629 0 0 2.68629 0 6C0 9.31371 2.68629 12 6 12ZM7.26303 9C7.87305 9 8.40196 8.77196 8.83132 8.32771C9.27703 7.84001 8.7401 7.36534 8.36664 7.09518C8.3347 7.07208 8.30167 7.04686 8.26739 7.02068C8.05226 6.85645 7.78799 6.65469 7.43728 6.70301C7.19492 6.76145 7.06316 6.91134 6.93488 7.05728C6.8172 7.19115 6.70245 7.32169 6.50793 7.3753C6.2175 7.43132 5.92708 7.26325 5.75283 7.09518C5.34623 6.81506 5.05581 6.47891 4.76539 6.08674C4.64922 5.91867 4.47496 5.63855 4.53305 5.35843C4.57274 5.24357 4.69381 5.15488 4.80357 5.07447C4.85443 5.03721 4.90286 5.00174 4.93964 4.96626C4.96201 4.94468 4.98654 4.9231 5.01197 4.90072C5.11862 4.8069 5.24125 4.69901 5.28815 4.51807C5.33823 4.17995 5.17242 3.92512 5.01409 3.68178C4.98878 3.64288 4.96366 3.60427 4.93964 3.56566C4.93376 3.55809 4.92775 3.55034 4.92161 3.54242C4.74572 3.31561 4.4632 2.95128 4.12645 3.00541C3.90511 3.07658 3.59589 3.38509 3.42944 3.56566C2.98462 4.0482 2.84859 4.96626 3.1971 5.7506C3.48752 6.42289 3.9522 6.98313 4.41688 7.48735C4.93964 7.99156 5.4624 8.43976 6.10133 8.71988C6.44984 8.88795 6.79835 9 7.26303 9Z" fill="#999999"/>
</svg>
